<?xml version="1.0" encoding="UTF-8"?>
<!DOCTYPE svg PUBLIC "-//W3C//DTD SVG 1.1//EN" "http://www.w3.org/Graphics/SVG/1.1/DTD/svg11.dtd">
<svg xmlns="http://www.w3.org/2000/svg" version="1.1" width="200px" height="200px" style="shape-rendering:geometricPrecision; text-rendering:geometricPrecision; image-rendering:optimizeQuality; fill-rule:evenodd; clip-rule:evenodd" xmlns:xlink="http://www.w3.org/1999/xlink">
<g><path style="opacity:0.96" fill="#a2c0d4" d="M 62.5,8.5 C 66.7925,9.06431 70.2925,11.0643 73,14.5C 78.3051,21.442 82.3051,29.1086 85,37.5C 85.956,38.8941 87.2894,39.5607 89,39.5C 96.8388,38.4399 104.672,38.2732 112.5,39C 116.382,28.5667 122.049,19.2333 129.5,11C 134.924,7.72427 139.758,8.55761 144,13.5C 148.726,24.619 153.726,35.619 159,46.5C 161.617,54.6985 162.117,63.0318 160.5,71.5C 170.121,90.7743 173.621,111.108 171,132.5C 163.293,156.103 148.46,173.603 126.5,185C 89.8124,196.883 60.6457,187.049 39,155.5C 29.4026,143.112 25.4026,129.112 27,113.5C 28.2726,98.9041 32.106,85.0708 38.5,72C 36.4336,61.4531 37.6003,51.2864 42,41.5C 46.8803,32.4068 51.2137,23.0735 55,13.5C 56.9133,10.7197 59.4133,9.05301 62.5,8.5 Z M 62.5,18.5 C 64.0174,18.5106 65.1841,19.1772 66,20.5C 71.1288,28.4243 75.4621,36.7577 79,45.5C 81.6153,47.6404 84.6153,48.6404 88,48.5C 95.6667,47.1667 103.333,47.1667 111,48.5C 114.129,48.6709 116.963,47.8376 119.5,46C 122.507,39.4852 125.673,32.9852 129,26.5C 130.938,23.6105 133.105,20.9438 135.5,18.5C 141.257,30.35 146.757,42.35 152,54.5C 152.284,61.8473 152.284,69.1806 152,76.5C 158.392,88.0087 161.725,100.342 162,113.5C 158.388,109.198 154.055,105.865 149,103.5C 149.536,91.7986 145.369,81.9653 136.5,74C 122.141,66.41 109.475,68.5767 98.5,80.5C 83.6305,65.8581 68.7972,65.8581 54,80.5C 52.3921,83.3821 51.0587,86.3821 50,89.5C 49.8814,94.2824 49.2148,98.9491 48,103.5C 43.9791,105.677 40.3124,108.344 37,111.5C 37.687,99.0866 41.0203,87.4199 47,76.5C 46.6469,69.1851 46.6469,61.8518 47,54.5C 52.4543,42.5948 57.6209,30.5948 62.5,18.5 Z M 72.5,78.5 C 86.2426,78.7409 93.7426,85.7409 95,99.5C 97.3333,100.833 99.6667,100.833 102,99.5C 104.783,81.3677 114.616,75.5344 131.5,82C 137.668,86.8176 140.001,92.9843 138.5,100.5C 138.83,103.324 139.664,105.991 141,108.5C 146.365,112.019 151.365,116.019 156,120.5C 161.536,128.612 161.536,136.612 156,144.5C 148.547,156.954 138.713,167.12 126.5,175C 122.26,176.971 117.927,178.305 113.5,179C 118.409,171.861 120.409,164.028 119.5,155.5C 126.163,150.85 130.329,144.517 132,136.5C 132.833,133.167 133.667,129.833 134.5,126.5C 133.024,121.426 130.191,120.426 126,123.5C 124.462,129.986 122.462,136.319 120,142.5C 115.231,148.456 109.731,149.122 103.5,144.5C 106.909,142.257 109.409,139.257 111,135.5C 111.999,127.001 108.166,123.335 99.5,124.5C 88.969,123.896 85.469,128.562 89,138.5C 91.0425,140.712 93.2092,142.712 95.5,144.5C 89.2685,149.122 83.7685,148.456 79,142.5C 76.5377,136.319 74.5377,129.986 73,123.5C 68.8091,120.426 65.9758,121.426 64.5,126.5C 65.9051,134.216 68.4051,141.549 72,148.5C 74.2047,151.04 76.7047,153.207 79.5,155C 78.5034,163.681 80.5034,171.681 85.5,179C 71.7873,175.982 60.6206,168.815 52,157.5C 46.58,150.333 41.9133,142.667 38,134.5C 36.8895,129.389 37.8895,124.722 41,120.5C 45.7114,116.12 50.7114,112.12 56,108.5C 58.0637,102.717 59.0637,96.717 59,90.5C 61.8332,84.4933 66.3332,80.4933 72.5,78.5 Z M 93.5,154.5 C 95.1969,156.305 96.0302,158.639 96,161.5C 98.3333,164.167 100.667,164.167 103,161.5C 103.186,159.1 103.686,156.766 104.5,154.5C 106.709,155.106 108.876,155.773 111,156.5C 111.191,163.262 109.357,169.429 105.5,175C 99.5766,177.716 94.7432,176.549 91,171.5C 88.7153,166.435 87.8819,161.268 88.5,156C 90.3817,155.802 92.0484,155.302 93.5,154.5 Z"/></g>
<g><path style="opacity:0.959" fill="#a2c0d4" d="M 62.5,33.5 C 64.1439,33.2865 65.6439,33.6198 67,34.5C 70.4535,39.3744 72.1201,44.7078 72,50.5C 66.4754,54.5082 60.6421,57.8415 54.5,60.5C 54.335,57.1501 54.5017,53.8168 55,50.5C 57.5146,44.8074 60.0146,39.1407 62.5,33.5 Z"/></g>
<g><path style="opacity:0.942" fill="#a2c0d4" d="M 132.5,33.5 C 133.978,33.238 135.311,33.5713 136.5,34.5C 138.667,38.8333 140.833,43.1667 143,47.5C 144.29,51.7305 144.79,56.0638 144.5,60.5C 138.358,57.8415 132.525,54.5082 127,50.5C 126.333,48.5 126.333,46.5 127,44.5C 128.847,40.8068 130.68,37.1401 132.5,33.5 Z"/></g>
<g><path style="opacity:0.952" fill="#a2c0d4" d="M 75.5,89.5 C 78.7411,89.8776 81.7411,90.8776 84.5,92.5C 87.6669,96.5101 86.8335,99.1768 82,100.5C 80.1049,100.385 78.4382,99.7185 77,98.5C 75.5134,99.1552 74.3467,100.155 73.5,101.5C 66.6109,103.446 64.4442,101.112 67,94.5C 69.3978,91.8916 72.2312,90.2249 75.5,89.5 Z"/></g>
<g><path style="opacity:0.942" fill="#a2c0d4" d="M 121.5,89.5 C 127.744,89.6119 131.744,92.6119 133.5,98.5C 132.086,102.421 129.42,103.421 125.5,101.5C 124.653,100.155 123.487,99.1552 122,98.5C 118.925,101.059 115.925,101.059 113,98.5C 112.349,96.765 112.515,95.0983 113.5,93.5C 115.84,91.3206 118.507,89.9873 121.5,89.5 Z"/></g>
</svg>
